<svg width="33" height="32" viewBox="0 0 33 32" fill="none" xmlns="http://www.w3.org/2000/svg">
<path d="M11.9991 25.998H8.99905C8.00635 25.9971 7.02521 25.785 6.12074 25.3758C5.21628 24.9667 4.40918 24.3698 3.75303 23.6249C3.09687 22.88 2.60666 22.004 2.31494 21.0551C2.02321 20.1063 1.93665 19.1062 2.06098 18.1213C2.18532 17.1364 2.51772 16.1892 3.03611 15.3426C3.5545 14.496 4.24703 13.7694 5.06773 13.2109C5.88844 12.6524 6.81854 12.2749 7.79632 12.1033C8.77409 11.9318 9.77716 11.9702 10.739 12.216" stroke="#E4E6EB" stroke-linecap="round" stroke-linejoin="round"/>
<path d="M9.99902 15.998C9.99918 14.4136 10.3759 12.8518 11.098 11.4415C11.8202 10.0312 12.8672 8.81262 14.1527 7.88625C15.4383 6.95988 16.9255 6.35221 18.492 6.11333C20.0585 5.87445 21.6593 6.01118 23.1625 6.51227C24.6658 7.01335 26.0284 7.86444 27.1382 8.99541C28.248 10.1264 29.0731 11.5048 29.5456 13.0172C30.0181 14.5296 30.1244 16.1326 29.8558 17.6941C29.5872 19.2557 28.9514 20.731 28.0007 21.9986" stroke="#E4E6EB" stroke-linecap="round" stroke-linejoin="round"/>
<path d="M14.7573 20.2408L18.9999 15.998L23.2426 20.2408" stroke="#E4E6EB" stroke-linecap="round" stroke-linejoin="round"/>
<path d="M19.0005 25.998V15.998" stroke="#E4E6EB" stroke-linecap="round" stroke-linejoin="round"/>
</svg>
