<svg width="80" height="24" viewBox="0 0 80 24" fill="none" xmlns="http://www.w3.org/2000/svg">
<path d="M5.83842 18.4481C5.28476 18.4481 4.67393 18.3518 4.00395 18.1593C3.33397 17.9668 2.69588 17.6781 2.08971 17.2931C1.48353 16.908 0.983706 16.4114 0.590224 15.8018C0.196077 15.1922 0 14.4703 0 13.6362H2.99897C2.99897 13.6789 3.00961 13.8233 3.03088 14.0693C3.05215 14.3146 3.14254 14.5927 3.30206 14.9028C3.46158 15.213 3.73277 15.4857 4.11561 15.7223C4.49846 15.9576 5.05146 16.0745 5.77462 16.0745C6.62539 16.0745 7.26347 15.9195 7.68886 15.61C8.11424 15.2992 8.32694 14.9409 8.32694 14.5345C8.32694 14.0646 8.1302 13.695 7.73671 13.4276C7.34257 13.1609 6.83809 12.9417 6.22128 12.7699C5.60447 12.5988 4.95043 12.4224 4.25918 12.2412C3.56726 12.0601 2.91921 11.8188 2.31304 11.5193C1.70686 11.2199 1.21235 10.8081 0.829504 10.2841C0.446656 9.76004 0.255234 9.0803 0.255234 8.24612C0.255234 7.02694 0.743763 6.1025 1.72282 5.47085C2.70054 4.84054 3.94479 4.52441 5.45558 4.52441C6.51905 4.52441 7.50807 4.69082 8.42265 5.02168C9.33656 5.35388 10.0704 5.87794 10.624 6.59447C11.177 7.31101 11.4535 8.24746 11.4535 9.40181H8.45455C8.47516 8.73875 8.33159 8.24141 8.02385 7.90988C7.71544 7.57835 7.33193 7.34845 6.87531 7.22078C6.41802 7.09178 5.97601 7.02761 5.55129 7.02761C4.78559 7.02761 4.20601 7.16193 3.81252 7.42929C3.41838 7.69666 3.2223 8.04423 3.2223 8.47201C3.2223 8.96397 3.41838 9.34432 3.81252 9.61101C4.20534 9.87905 4.71581 10.0983 5.34392 10.2687C5.9707 10.4405 6.63071 10.617 7.32196 10.7981C8.01321 10.9793 8.67256 11.2205 9.30001 11.52C9.92679 11.8194 10.4373 12.2212 10.8314 12.7231C11.2249 13.2258 11.4216 13.8942 11.4216 14.7284C11.4216 15.9903 10.9058 16.9261 9.87428 17.5357C8.84272 18.1439 7.49743 18.4481 5.83842 18.4481Z" fill="#1A1A1A"/>
<path d="M17.4479 18.1275C16.4057 18.1275 15.6241 17.8708 15.103 17.3581C14.5812 16.8441 14.3213 16.01 14.3213 14.8556V7.25111H12.3433V4.94174C12.9601 4.94174 13.438 4.8769 13.7789 4.74857C14.1192 4.6209 14.3638 4.32146 14.5127 3.85022C14.6616 3.38033 14.7361 2.62033 14.7361 1.57227H17.3522V4.94174H20.3512V7.25111H17.3522V15.5615H20.415V18.1282H17.4479V18.1275Z" fill="#1A1A1A"/>
<path d="M26.4611 18.448C24.6532 18.448 23.3664 17.8277 22.6007 16.5878C21.835 15.3479 21.4521 13.7217 21.4521 11.7104C21.4521 9.67912 21.8396 8.04285 22.6166 6.80161C23.393 5.56171 24.6744 4.94141 26.4611 4.94141C27.482 4.94141 28.2902 5.11252 28.8858 5.45475C29.4813 5.79698 29.9273 6.18198 30.2257 6.61044C30.5235 7.03889 30.7043 7.36975 30.7681 7.60436L30.8319 7.5723V4.94141H34.1818V18.1278H31.3743L30.8319 15.9782H30.7681C30.7043 16.1701 30.5182 16.4655 30.2098 16.8605C29.9014 17.2562 29.4441 17.6198 28.8379 17.9507C28.2317 18.2822 27.4388 18.448 26.4611 18.448ZM27.801 15.6895C28.9921 15.6895 29.795 15.3098 30.2098 14.5498C30.6245 13.7912 30.8319 12.8554 30.8319 11.7432C30.8319 10.5668 30.6192 9.62027 30.1938 8.90373C29.7678 8.1872 28.9702 7.82895 27.801 7.82895C26.9715 7.82895 26.3281 8.00607 25.8708 8.35832C25.4136 8.71125 25.0945 9.18181 24.9137 9.77001C24.7329 10.3582 24.6425 11.0159 24.6425 11.7432C24.6425 12.4704 24.7329 13.1334 24.9137 13.7323C25.0939 14.3312 25.4129 14.8072 25.8708 15.1601C26.3275 15.5123 26.9715 15.6895 27.801 15.6895Z" fill="#1A1A1A"/>
<path d="M39.981 23.9994V20.9194H45.7237V15.7867L45.6599 15.786C45.6387 15.8288 45.5483 15.9892 45.3887 16.2673C45.2292 16.5453 44.9786 16.8561 44.639 17.1984C44.2987 17.5406 43.8573 17.8347 43.315 18.0806C42.7726 18.3259 42.0973 18.449 41.2891 18.449C39.3529 18.449 37.9598 17.8287 37.1097 16.5887C36.2589 15.3488 35.8335 13.7333 35.8335 11.7441C35.8335 9.66936 36.2642 8.01704 37.1256 6.78716C37.987 5.55729 39.3748 4.94238 41.2891 4.94238C42.1392 4.94238 42.8411 5.07538 43.3947 5.34341C43.9477 5.61078 44.3838 5.92628 44.7028 6.28989C45.0218 6.65418 45.2505 6.98503 45.3887 7.28447C45.527 7.58392 45.6067 7.76573 45.628 7.82923H45.6918L45.7237 4.94238H49.0736V19.2517C49.0736 21.0049 48.7274 22.2348 48.0368 22.9413C47.3455 23.6472 46.2767 24.0001 44.8304 24.0001H39.981V23.9994ZM42.31 15.6898C43.5011 15.6898 44.3625 15.3201 44.8942 14.5829C45.4253 13.8449 45.6918 12.8978 45.6918 11.7435C45.6918 10.6312 45.4366 9.70545 44.9261 8.96819C44.4157 8.23093 43.5649 7.8613 42.3738 7.8613C41.5011 7.8613 40.8211 8.04914 40.332 8.42278C39.8421 8.79776 39.4971 9.279 39.2951 9.86653C39.0924 10.4554 38.992 11.0804 38.992 11.7441C38.992 12.4078 39.0824 13.0428 39.2632 13.6524C39.4433 14.262 39.7736 14.754 40.2522 15.129C40.7308 15.5026 41.4167 15.6898 42.31 15.6898Z" fill="#1A1A1A"/>
<path d="M53.1576 3.49782C52.4557 3.49782 51.9931 3.3267 51.7698 2.98447C51.5465 2.64225 51.4348 2.2245 51.4348 1.73255C51.4348 1.26266 51.5511 0.85557 51.7858 0.513344C52.0197 0.171785 52.477 0 53.1576 0C53.817 0 54.2583 0.171785 54.4816 0.513344C54.705 0.856239 54.8166 1.26266 54.8166 1.73255C54.8166 2.2245 54.705 2.64225 54.4816 2.98447C54.2577 3.3267 53.8163 3.49782 53.1576 3.49782ZM51.498 18.1273V4.94092H54.7522V18.1273H51.498Z" fill="#1A1A1A"/>
<path d="M57.2222 18.1273V4.94092H60.253L60.4764 8.59845C60.604 8.04234 60.8539 7.48087 61.2261 6.91339C61.5983 6.34658 62.1194 5.87667 62.7894 5.50236C63.4594 5.12805 64.3261 4.94092 65.3896 4.94092H65.8682V8.59845H65.3896C63.5598 8.59845 62.2836 8.89254 61.5611 9.48007C60.838 10.0689 60.4764 11.0582 60.4764 12.4478V18.1267H57.2222V18.1273Z" fill="#1A1A1A"/>
<path d="M73.4276 18.4483C71.9388 18.4483 70.7052 18.1595 69.7268 17.5827C68.7484 17.0045 68.0146 16.2078 67.5254 15.1924C67.0362 14.1765 66.7916 13.0161 66.7916 11.7107C66.7703 9.74357 67.318 8.12334 68.4347 6.85068C69.5513 5.5787 71.215 4.94238 73.4276 4.94238C75.5758 4.94238 77.2083 5.56264 78.3249 6.80254C79.4415 8.04312 79.9999 9.68005 79.9999 11.7114C79.9999 12.974 79.7652 14.1183 79.298 15.145C78.83 16.171 78.1069 16.9791 77.1285 17.5673C76.1501 18.1542 74.9165 18.4483 73.4276 18.4483ZM73.4276 15.6898C74.3635 15.6898 75.0813 15.4859 75.5812 15.0802C76.0803 14.6744 76.4153 14.1544 76.5861 13.5241C76.7563 12.8938 76.8414 12.2568 76.8414 11.6151C76.8414 10.9527 76.7563 10.2997 76.5861 9.65802C76.416 9.01635 76.081 8.49296 75.5812 8.08523C75.0813 7.6795 74.3628 7.47565 73.4276 7.47565C72.4705 7.47565 71.7414 7.68487 71.2422 8.10196C70.7424 8.51905 70.4021 9.04373 70.2213 9.67471C70.0405 10.305 69.9501 10.9527 69.9501 11.6151C69.9501 12.2568 70.0405 12.8938 70.2213 13.5241C70.4014 14.1544 70.7424 14.6744 71.2422 15.0802C71.7414 15.4859 72.4705 15.6898 73.4276 15.6898Z" fill="#1A1A1A"/>
</svg>
