<svg width="20" height="16" viewBox="0 0 20 16" fill="none" xmlns="http://www.w3.org/2000/svg">
<path fill-rule="evenodd" clip-rule="evenodd" d="M19.7527 1.9C19.2027 2.7 18.5152 3.4125 17.7277 3.9875C17.7402 4.1625 17.7402 4.3375 17.7402 4.5125C17.7402 9.85 13.6777 16 6.25273 16C3.96523 16 1.84023 15.3375 0.0527344 14.1875C0.377734 14.225 0.690234 14.2375 1.02773 14.2375C2.91523 14.2375 4.65273 13.6 6.04023 12.5125C4.26523 12.475 2.77773 11.3125 2.26523 9.7125C2.51523 9.75 2.76523 9.775 3.02773 9.775C3.39023 9.775 3.75273 9.725 4.09023 9.6375C2.24023 9.2625 0.852734 7.6375 0.852734 5.675V5.625C1.39023 5.925 2.01523 6.1125 2.67773 6.1375C1.59023 5.4125 0.877734 4.175 0.877734 2.775C0.877734 2.025 1.07773 1.3375 1.42773 0.7375C3.41523 3.1875 6.40273 4.7875 9.75273 4.9625C9.69023 4.6625 9.65273 4.35 9.65273 4.0375C9.65273 1.8125 11.4527 0 13.6902 0C14.8527 0 15.9027 0.4875 16.6402 1.275C17.5527 1.1 18.4277 0.7625 19.2027 0.3C18.9027 1.2375 18.2652 2.025 17.4277 2.525C18.2402 2.4375 19.0277 2.2125 19.7527 1.9Z" fill="white"/>
</svg>
